<svg version="1.2" baseProfile="tiny-ps" xmlns="http://www.w3.org/2000/svg" viewBox="0 0 1280 720" width="1280" height="720">
	<title>home_bg</title>
	<style>
		tspan { white-space:pre }
	</style>
	<path id="&lt;template&gt; 	&lt;div&gt; 		&lt;h1&gt; 							" fill="#3e3e3e" aria-label="&lt;template&gt;
	&lt;div&gt;
		&lt;h1&gt;
							     &lt;br /&gt;
															"  d="m36.35 38.72v0q-0.27 0.02-0.42 0q-0.12-0.05-0.2-0.12q-0.05-0.1-0.07-0.2q-0.02-0.12-0.12-0.2q-0.07-0.07-0.29-0.02q-0.2 0.02-0.66 0.27q-3.64 1.9-7.08 3.86q-0.24 0.12-0.49 0.24q-0.95 0.51-0.93 0.73q0.02 0.22 0.81 0.56q0.22 0.1 0.51 0.24q1.71 0.88 3.34 1.78q1.37 0.73 2.12 1.12q0.27 0.2 0.27 0.39q0 0.17-0.17 0.27q-0.17 0.07-0.39 0q-0.88-0.37-2.44-1.07q-1.54-0.73-3.03-1.44q-1.49-0.73-2.12-1.05q-0.17-0.07-0.22-0.12q-0.24-0.1-0.49-0.37q-0.24-0.27-0.27-0.56q-0.02-0.29 0.39-0.49q0-0.02 0.07-0.05q0.61-0.39 3.17-1.83q2.56-1.46 5.37-2.91q2.81-1.46 4.2-1.81q0.88-0.02 1.03 0.59q0.17 0.59-0.32 1.27q-0.49 0.66-1.59 0.9zm2.47-9.13v0q-0.05 0.22-0.37 0.24q-0.32 0-0.68-0.15q-0.37-0.15-0.54-0.37q-0.17-0.24 0.1-0.51q0.27-0.27 1.2-0.51q4.61-0.78 9.06-1.34q0.85-0.1 1.29-0.2q0.46-0.1 0.71-0.32q0.27-0.24 0.54-0.76q0.44-0.76 0.9-1.51q0.1-0.17 0.2-0.34q3.78-6.32 5.13-7.54q2.1-1.93 1.81 0.63q-0.49 3.34-3.42 8.3q0 0.02-0.02 0.07q-0.44 0.68-0.42 0.83q0.02 0.15 0.56 0.07q0.1 0 0.17 0q0.27-0.02 0.54-0.02q6.08-0.39 12.5-0.34q0.42 0 0.54 0.2q0.12 0.17-0.02 0.34q-0.15 0.15-0.59 0.12q-6.88-0.12-13.35 0.63q-0.22 0.02-0.39 0.05q-0.37 0-0.59 0.1q-0.22 0.1-0.46 0.49q-3.05 4.69-6.4 8.81q-3.32 4.13-5.54 6.15q-0.12 0.12-0.2 0.17q-0.07 0.05-0.12 0.07q-0.05 0.02-0.1 0.07q-0.05 0.05-0.12 0.15q-0.07 0.1-0.2 0.32q-5.42 8.64-10.91 17.24q0.44 0 0.39 0.34q-0.02 0.32-0.37 0.59q-1.07 0.81-1.49 0.49q-0.42-0.32 0.05-1.39q1.27-2 2.54-3.98q8.86-13.77 17.43-27.83q0.1-0.2 0.2-0.34q0.29-0.42 0.27-0.56q0-0.17-0.59-0.07q-4.54 0.66-9.23 1.46q0 0.07 0 0.15zm12.74-4v0q-0.24 0.42-0.34 0.68q-0.1 0.27 0.12 0.24q0.37-0.05 0.73-0.07q0.24 0 0.39-0.05q0.15-0.05 0.27-0.2q0.12-0.17 0.32-0.49q2.71-4.64 3.76-8.2q-1.32 1.46-4.57 6.93q-0.15 0.24-0.29 0.49q-0.2 0.32-0.39 0.66zm-1.54 2.56v0q-0.83 1.37-1.73 2.88q-2.17 3.76-4.64 7.52q-1.27 1.9 0.17 0.32q3.69-4.3 7.64-10.52q0.27-0.46 0.37-0.63q0.1-0.2 0-0.22q-0.07-0.05-0.32-0.02q-0.02 0-0.07 0q-0.05 0.02-0.12 0.02q-0.42 0.02-0.73 0.15q-0.32 0.1-0.56 0.51zm3.37 9.96v0q1.37 0.29 1.1 1.17q-0.27 0.88-1.42 1.83q-1.15 0.95-2.39 1.44q-1.22 0.46-1.78-0.05q-0.39 0.49-0.9 1.29q-0.49 0.78-0.56 1.39q0 0.93 1.27 0.81q1.27-0.12 3.03-0.81q1.76-0.68 3.22-1.39q1.46-0.73 1.86-1q0.29-0.2 0.54-0.17q0.27 0.02 0.22 0.27q-0.02 0.24-0.63 0.68q-0.73 0.51-2.49 1.46q-1.73 0.93-3.69 1.61q-1.95 0.68-3.32 0.46q-1.37-0.22-1.32-2q0.12-1.2 1.37-2.86q1.25-1.66 2.88-2.91q1.66-1.27 3.03-1.25zm-0.49 1.34v0q-0.22 0.07-0.76 0.42q-0.54 0.32-1.15 0.73q-0.59 0.42-1.03 0.78q-0.44 0.37-0.51 0.54q-0.07 0.17 0.44 0q0.71-0.27 1.73-0.93q1.03-0.68 1.56-1.25q0.24-0.27 0.2-0.34q-0.02-0.07-0.49 0.05zm13.06 5.44v0q0.2 0.02 0.71-0.46q0.54-0.51 1.25-1.27q1.17-1.27 2.42-2.39q1.27-1.12 2.12-1.15q0.81 0.12 0.9 0.93q0.12 0.78 0.02 1.73q-0.07 0.61-0.07 1.12q0.02 0.49 0.24 0.71q0.42 0.42 3.17-1.22q0.34-0.2 0.54-0.12q0.22 0.07 0.17 0.29q-0.02 0.22-0.44 0.46q-1.81 1.12-2.78 1.44q-0.98 0.29-1.51-0.2q-0.9-0.88-0.66-3.1q0.02-0.51-0.12-0.49q-0.12 0-0.56 0.37q-0.05 0.05-0.1 0.07q-0.73 0.61-1.66 1.51q-1.15 1.12-2.22 1.98q-1.05 0.83-1.68 0.63q-0.85-0.37-0.88-1.39q-0.02-1.03 0.37-2.22q0.42-1.22 0.83-2.17q0.2-0.49 0.32-0.81q0.17-0.61-0.59-0.15q-0.76 0.46-1.98 1.49q-1.22 1-2.44 2.1q-1.2 1.07-1.93 1.73q-0.42 0.37-0.51 0.49q-0.12 0.1-0.37 0.29q-0.46 0.44-1.17 1.05q-0.71 0.59-1.37 1q-0.66 0.42-1 0.29q-0.73-0.39-0.17-1.54q1.46-2.98 3.37-5.57q0.98-1.39 1.88-2.81q0.02-0.05 0.02-0.07q0-0.02-0.05-0.07q0 0-0.02-0.02q-0.17-0.17-0.12-0.37q0.05-0.2 0.24-0.42q0.12-0.12 0.44-0.34q0.34-0.22 0.68-0.29q0.34-0.1 0.49 0.15q0.15 0.24-0.12 1.03q-1.51 2.71-3.44 5.47q-0.44 0.66-0.85 1.29q-0.59 0.88-0.44 0.83q0.15-0.05 0.78-0.61q0.17-0.15 0.34-0.29q1.64-1.44 3.42-2.91q1.81-1.49 3.3-2.42q1.49-0.95 2.22-0.76q1 0.46 0.37 2.34q-0.05 0.12-0.17 0.44q-0.22 0.66-0.59 1.66q-0.34 1-0.56 1.83q-0.2 0.81-0.02 0.88zm-1.56 21.34v0q0.32-0.71 2-4.22q1.71-3.52 4.37-8.52q3.37-6.3 6.62-11.89q0.83-1.46 1.54-2.69q2.25-4.08 3.42-5.52q1.2-1.44 2.17-0.12q0.02 0.56-0.61 1.42q-0.63 0.83-1.51 1.78q-1.27 1.37-2.08 2.64q-1.81 3.15-4.3 7.59q-2.47 4.42-4.08 7.42q-0.39 0.71-0.93 1.66q-0.51 0.88-0.93 1.66q-0.42 0.76-0.51 1.05q-0.07 0.27 0.39-0.24q0.46-0.51 1.68-2.15q0.34-0.44 0.68-0.93q3.59-4.88 8.2-10.57q4.61-5.69 8.81-9.08q2-1.49 2.78-1.05q0.81 0.42 0.71 1.83q-0.22 2.49-1.95 5.15q-1.73 2.64-4.03 4.81q-2.27 2.17-4.08 3.22q-1.81 1.05-2.17 0.37q-0.05-0.12 0.05-0.17q0.12-0.07 0.27-0.1q1.25-0.29 3.2-2q1.98-1.71 3.91-4q1.93-2.29 3-4.39q1.1-2.1 0.59-3.2q-0.15-0.44-1.46 0.56q-3.59 2.86-7.91 7.96q-4.3 5.1-8.47 10.74q-4.15 5.64-7.28 10.06q-0.76 1.07-1.42 2q-0.24 0.29-0.46 0.17q-0.22-0.15-0.29-0.49q-0.07-0.37 0.07-0.76zm19.46-5.91v0q-0.27-0.12-0.24-0.51q0.05-0.39 0.54-1.32q0.51-0.93 1.59-2.71q1.1-1.78 2.91-4.71q2.05-3.27 5.22-8.4q0.83-1.56 3.39-5.86q2.56-4.32 5.71-9.33q3.15-5.03 5.74-8.74q2.61-3.74 3.56-4.17q1.49-0.44 1.46 0.73q0 1.15-0.83 2.98q-0.81 1.81-1.73 3.42q-0.9 1.59-1.2 2.05q-0.02 0.02-0.02 0.05q-3.34 5.4-7.4 10.84q-4.03 5.44-6.2 7.3q-0.42 0.29-0.56 0.37q-0.12 0.07-0.22 0.15q-0.07 0.07-0.2 0.24q-0.12 0.17-0.34 0.54l-9.69 15.8q0.07 0-0.05 0.27q-0.1 0.24-0.32 0.56q-0.22 0.29-0.54 0.46q-0.29 0.15-0.59 0zm13.96-21.58v0q-0.34 0.54-0.34 0.61q0.02 0.07 0.46-0.46q2.42-3.08 5.4-7.4q2.98-4.32 5.49-8.37q3-4.98 3.47-6.42q0.49-1.44-1.25 0.83q-2.44 3.37-4.81 7.2q-2.37 3.83-4.64 7.71q-1.93 3.27-3.78 6.3zm15.92 3.93q0.66-0.34 0.78-0.05q0.12 0.29-0.46 0.71q-0.93 0.56-2.39 1.1q-1.44 0.51-2.59 0.32q-1.15-0.22-1.2-1.86v-0.12q0.02-0.34-0.05-0.34q-0.07-0.02-0.42 0.2q-3.78 2.47-5.57 3.08q-1.76 0.61-2.08 0.05q-0.39-0.78 0.98-2.42q1.37-1.66 3.52-3.15q2.17-1.49 4.15-1.78q1.98-0.32 2.78 1.56q0.07 0.24-0.07 0.44q-0.15 0.2-0.39 0.27q-0.24 0.07-0.56-0.1q-0.29-0.17-0.42-0.42q0-0.05 0.02-0.1q0.02-0.05 0.05-0.1q0.02-0.05 0.05-0.1q0.02-0.05 0-0.1q-0.61-0.83-2.1-0.24q-1.49 0.59-3.15 1.83q-1.66 1.25-2.81 2.37q-1.15 1.1-1.07 1.34q0.1 0.24 1.93-0.81q1.83-1.05 6.01-3.93q0.22-0.12 0.44-0.07q0.24 0.02 0.39 0.24q0.17 0.29 0.02 0.59q-0.93 2-0.22 2.47q0.73 0.46 2.08 0.07q1.37-0.39 2.34-0.95zm-0.63-13.09v0q-0.05 0.22-0.37 0.24q-0.32 0-0.68-0.15q-0.37-0.15-0.54-0.37q-0.17-0.24 0.1-0.51q0.27-0.27 1.2-0.51q4.61-0.78 9.06-1.34q0.85-0.1 1.29-0.2q0.46-0.1 0.71-0.32q0.27-0.24 0.54-0.76q0.44-0.76 0.9-1.51q0.1-0.17 0.2-0.34q3.78-6.32 5.13-7.54q2.1-1.93 1.81 0.63q-0.49 3.34-3.42 8.3q0 0.02-0.02 0.07q-0.44 0.68-0.42 0.83q0.02 0.15 0.56 0.07q0.1 0 0.17 0q0.27-0.02 0.54-0.02q6.08-0.39 12.5-0.34q0.42 0 0.54 0.2q0.12 0.17-0.02 0.34q-0.15 0.15-0.59 0.12q-6.88-0.12-13.35 0.63q-0.22 0.02-0.39 0.05q-0.37 0-0.59 0.1q-0.22 0.1-0.46 0.49q-3.05 4.69-6.4 8.81q-3.32 4.13-5.54 6.15q-0.12 0.12-0.2 0.17q-0.07 0.05-0.12 0.07q-0.05 0.02-0.1 0.07q-0.05 0.05-0.12 0.15q-0.07 0.1-0.2 0.32q-5.42 8.64-10.91 17.24q0.44 0 0.39 0.34q-0.02 0.32-0.37 0.59q-1.07 0.81-1.49 0.49q-0.42-0.32 0.05-1.39q1.27-2 2.54-3.98q8.86-13.77 17.43-27.83q0.1-0.2 0.2-0.34q0.29-0.42 0.27-0.56q0-0.17-0.59-0.07q-4.54 0.66-9.23 1.46q0 0.07 0 0.15zm12.74-4v0q-0.24 0.42-0.34 0.68q-0.1 0.27 0.12 0.24q0.37-0.05 0.73-0.07q0.24 0 0.39-0.05q0.15-0.05 0.27-0.2q0.12-0.17 0.32-0.49q2.71-4.64 3.76-8.2q-1.32 1.46-4.57 6.93q-0.15 0.24-0.29 0.49q-0.2 0.32-0.39 0.66zm-1.54 2.56v0q-0.83 1.37-1.73 2.88q-2.17 3.76-4.64 7.52q-1.27 1.9 0.17 0.32q3.69-4.3 7.64-10.52q0.27-0.46 0.37-0.63q0.1-0.2 0-0.22q-0.07-0.05-0.32-0.02q-0.02 0-0.07 0q-0.05 0.02-0.12 0.02q-0.42 0.02-0.73 0.15q-0.32 0.1-0.56 0.51zm3.37 9.96v0q1.37 0.29 1.1 1.17q-0.27 0.88-1.42 1.83q-1.15 0.95-2.39 1.44q-1.22 0.46-1.78-0.05q-0.39 0.49-0.9 1.29q-0.49 0.78-0.56 1.39q0 0.93 1.27 0.81q1.27-0.12 3.03-0.81q1.76-0.68 3.22-1.39q1.46-0.73 1.86-1q0.29-0.2 0.54-0.17q0.27 0.02 0.22 0.27q-0.02 0.24-0.63 0.68q-0.73 0.51-2.49 1.46q-1.73 0.93-3.69 1.61q-1.95 0.68-3.32 0.46q-1.37-0.22-1.32-2q0.12-1.2 1.37-2.86q1.25-1.66 2.88-2.91q1.66-1.27 3.03-1.25zm-0.49 1.34v0q-0.22 0.07-0.76 0.42q-0.54 0.32-1.15 0.73q-0.59 0.42-1.03 0.78q-0.44 0.37-0.51 0.54q-0.07 0.17 0.44 0q0.71-0.27 1.73-0.93q1.03-0.68 1.56-1.25q0.24-0.27 0.2-0.34q-0.02-0.07-0.49 0.05zm4.27 7.86v0q-0.59-0.32-0.44-0.68q0.17-0.37 0.71-0.68q0.54-0.34 1.07-0.56q0.56-0.24 0.76-0.32q0.05-0.02 0.05-0.02q1.86-0.95 4.1-2.17q2.27-1.25 3.93-2.17q0.95-0.51 0.93-0.71q0-0.22-0.76-0.56q-0.24-0.12-0.54-0.27q-1.88-0.9-3.66-1.66q-1.22-0.51-1.88-0.83q-0.27-0.2-0.24-0.46q0.02-0.29 0.2-0.46q0.2-0.2 0.42-0.12q0.93 0.37 2.56 1.15q1.64 0.76 3.15 1.49q1.51 0.73 2.03 0.98q0.05 0.02 0.07 0.05q0.24 0.1 0.49 0.37q0.24 0.27 0.27 0.59q0.02 0.29-0.39 0.49q0 0-0.07 0.05q-0.61 0.37-3.17 1.83q-2.56 1.46-5.37 2.93q-2.81 1.44-4.2 1.78zm-59.12 51.41v0q-0.27 0.02-0.42 0q-0.12-0.05-0.2-0.12q-0.05-0.1-0.07-0.2q-0.02-0.12-0.12-0.2q-0.07-0.07-0.29-0.02q-0.2 0.02-0.66 0.27q-3.64 1.9-7.08 3.86q-0.24 0.12-0.49 0.24q-0.95 0.51-0.93 0.73q0.02 0.22 0.81 0.56q0.22 0.1 0.51 0.24q1.71 0.88 3.34 1.78q1.37 0.73 2.12 1.12q0.27 0.2 0.27 0.39q0 0.17-0.17 0.27q-0.17 0.07-0.39 0q-0.88-0.37-2.44-1.07q-1.54-0.73-3.03-1.44q-1.49-0.73-2.12-1.05q-0.17-0.07-0.22-0.12q-0.24-0.1-0.49-0.37q-0.24-0.27-0.27-0.56q-0.02-0.29 0.39-0.49q0-0.02 0.07-0.05q0.61-0.39 3.17-1.83q2.56-1.46 5.37-2.91q2.81-1.46 4.2-1.81q0.88-0.02 1.03 0.59q0.17 0.59-0.32 1.27q-0.49 0.66-1.59 0.9zm13.4 0.85v0q-1.17 1.17-3.03 2.86q-1.86 1.66-3.83 3.17q-1.98 1.49-3.49 2.1q-1.49 0.59-1.93-0.42q-0.27-0.9 0.93-2.88q1.22-1.98 3.25-4.08q2.03-2.1 4.27-3.42q2.25-1.32 4.08-0.93q0.49 0.15 0.66 0.29q0.12 0.07 0.22 0.12q0.12 0.02 0.27-0.05q0.15-0.1 0.39-0.34q0.95-0.88 1.56-1.61q0.61-0.73 1.29-1.88q2.08-3.49 3.3-5.35q1.66-2.56 3.78-4.93q2.12-2.37 3.71-3.66q0.44-0.37 1.05-0.54q0.61-0.2 1.1-0.05q0.49 0.12 0.56 0.73q-0.1 0.78-1.61 3.03q-2.37 3.44-5.08 6.42q-2.69 2.95-5.1 5.18q-1 0.98-1.54 1.68q-0.54 0.68-1.27 1.93q-2.49 4.13-4.98 8.13q-2.47 4-4.15 6.69q-1.66 2.66-1.76 2.78q-0.17 0.27-0.42 0.32q-0.22 0.05-0.32-0.12q-0.1-0.17 0.12-0.56q1.39-2.42 3.47-6.05q3.08-5.4 5.05-8.76q0.51-0.81 0.39-0.73q-0.12 0.07-0.73 0.68q-0.1 0.12-0.22 0.24v0zm10.35-12.06v0q2.78-2.88 5.18-6.35q0.56-0.85 0.66-1.15q0.1-0.32-0.12-0.24q-0.2 0.05-0.59 0.34q-0.37 0.27-0.76 0.61q-0.39 0.34-0.63 0.59q-1.29 1.37-2.86 3.32q-1.54 1.93-2.61 3.56q-0.81 1.29-1 1.76q-0.2 0.44 0.05 0.29q0.24-0.17 0.76-0.71q0.54-0.54 1.15-1.2q0.39-0.44 0.78-0.83v0zm-10.28 9.45v0q-1.68-0.2-3.96 1.42q-2.27 1.59-4.27 3.74q-1.98 2.12-2.78 3.54q-0.37 0.66-0.44 1q-0.05 0.32 0.54 0q1.76-0.98 4.79-3.49q3.03-2.54 6.27-5.64q0.24-0.22 0.22-0.34q-0.02-0.15-0.37-0.22v0zm10.28-2.2v0q0.66 0.05 0.61 0.42q-0.05 0.34-0.49 0.71q-0.42 0.34-0.9 0.46q-0.46 0.1-0.68-0.32q-0.05-0.12 0.02-0.22q0.1-0.12 0.24-0.2q0.17-0.1 0.29-0.17q0.1-0.02 0.15-0.05q0.05-0.02 0.05-0.05q0.02-0.27 0.22-0.44q0.2-0.17 0.49-0.15zm-5.44 11.6v0q-0.95 0-1.12-0.61q-0.17-0.61 0.15-1.54q0.34-0.95 0.93-1.98q0.59-1.05 1.17-1.9q0.59-0.88 0.93-1.34q0.1-0.17 0.17-0.24q-0.15-0.39 0.27-0.85q0.42-0.49 0.98-0.71q0.56-0.24 0.81 0.07q0.17 0.27 0.07 0.51q-0.1 0.24-0.27 0.46q-0.05 0.05-0.1 0.12q-0.93 1.32-2.03 2.95q-1.07 1.61-1.61 2.71q-0.42 0.95 0.51 1.05q0.95 0.1 2.44-0.29q1.51-0.39 2.76-0.83q1.27-0.46 1.51-0.61q0.27-0.15 0.42-0.05q0.17 0.1 0.15 0.32q-0.02 0.2-0.34 0.42q-1.59 0.88-4.15 1.61q-2.54 0.73-3.64 0.73zm13.43-4.08v0q0.15-0.15 0.2-0.24q0.05-0.1 0.1-0.22q0.02-0.07 0.07-0.17q0.56-1.37 1.37-2.61q1.83-2.73 2.91-2.2q0.29 0.27-0.22 1.25q-0.51 0.95-1.32 2.1q-0.78 1.12-1.39 1.86q-0.05 0.07-0.1 0.15q-0.17 0.17-0.27 0.39q-0.07 0.2 0.02 0.46q0.22 0.56 0.98 0.51q0.78-0.05 1.61-0.37q0.83-0.32 1.22-0.51q0.02 0 0.05-0.02q0.24-0.15 0.42-0.07q0.2 0.05 0.17 0.24q-0.02 0.2-0.42 0.44q-1.49 0.93-2.86 1.2q-1.37 0.24-2.05-0.85q-0.1-0.2-0.2-0.15q-0.07 0.02-0.2 0.2q-0.02 0.05-0.05 0.07q-0.76 0.93-2.08 2.1q-1.29 1.15-2.59 1.68q-1.27 0.54-1.93-0.44q-0.34-0.63-0.1-1.78q0.17-0.98 0.63-2.17q0.27-0.68 0.81-1.68q0.54-1 1.15-1.88q0.61-0.9 1.05-1.2q0.51 0 0.76 0.32q0.27 0.29-0.1 1.2q-0.15 0.29-0.29 0.46q-0.15 0.17-0.39 0.37q-0.27 0.24-0.73 0.71q-0.32 0.32-0.61 0.83q-0.29 0.51-0.46 0.93q-1.03 2.44-0.81 3.1q0.22 0.63 1.17 0.1q0.98-0.56 2.2-1.71q1.25-1.17 2.27-2.37zm5.57 5.03v0q-0.59-0.32-0.44-0.68q0.17-0.37 0.71-0.68q0.54-0.34 1.07-0.56q0.56-0.24 0.76-0.32q0.05-0.02 0.05-0.02q1.86-0.95 4.1-2.17q2.27-1.25 3.93-2.17q0.95-0.51 0.93-0.71q0-0.22-0.76-0.56q-0.24-0.12-0.54-0.27q-1.88-0.9-3.66-1.66q-1.22-0.51-1.88-0.83q-0.27-0.2-0.24-0.46q0.02-0.29 0.2-0.46q0.2-0.2 0.42-0.12q0.93 0.37 2.56 1.15q1.64 0.76 3.15 1.49q1.51 0.73 2.03 0.98q0.05 0.02 0.07 0.05q0.24 0.1 0.49 0.37q0.24 0.27 0.27 0.59q0.02 0.29-0.39 0.49q0 0-0.07 0.05q-0.61 0.37-3.17 1.83q-2.56 1.46-5.37 2.93q-2.81 1.44-4.2 1.78zm-1.3 51.41v0q-0.27 0.02-0.42 0q-0.12-0.05-0.2-0.12q-0.05-0.1-0.07-0.2q-0.02-0.12-0.12-0.2q-0.07-0.07-0.29-0.02q-0.2 0.02-0.66 0.27q-3.64 1.9-7.08 3.86q-0.24 0.12-0.49 0.24q-0.95 0.51-0.93 0.73q0.02 0.22 0.81 0.56q0.22 0.1 0.51 0.24q1.71 0.88 3.34 1.78q1.37 0.73 2.12 1.12q0.27 0.2 0.27 0.39q0 0.17-0.17 0.27q-0.17 0.07-0.39 0q-0.88-0.37-2.44-1.07q-1.54-0.73-3.03-1.44q-1.49-0.73-2.12-1.05q-0.17-0.07-0.22-0.12q-0.24-0.1-0.49-0.37q-0.24-0.27-0.27-0.56q-0.02-0.29 0.39-0.49q0-0.02 0.07-0.05q0.61-0.39 3.17-1.83q2.56-1.46 5.37-2.91q2.81-1.46 4.2-1.81q0.88-0.02 1.03 0.59q0.17 0.59-0.32 1.27q-0.49 0.66-1.59 0.9zm3.3 3.98v0q0 0 0.02-0.02q0.15-0.12 0.71-0.66l11.91-19.14q1.32-0.83 1.73-0.42q0.42 0.39 0.27 1.46q-0.12 1.05-0.49 2.15q-0.37 1.1-0.61 1.66q-1.54 3.3-4.05 6.54q-2.51 3.22-4.86 5.66q-2.34 2.44-3.34 3.34l-1.44 2.17q-0.63 0.93-0.37 0.81q0.27-0.15 1.1-0.9q1.95-1.83 4.22-3.81q2.29-1.98 4.27-3.27q2-1.32 3.08-1.12q1.42 0.37 0.61 3.27q-0.59 2.29-0.51 3.47q0.1 1.17 0.66 1.34q1.51 0.39 5.49-1.95q0.24-0.15 0.42-0.02q0.2 0.12 0.17 0.37q0 0.22-0.32 0.44q-2.12 1.34-3.66 1.95q-1.51 0.61-2.51 0.29q-2.27-0.61-0.71-6.37q0.49-1.93-0.46-1.71q-0.95 0.22-2.73 1.71q-1.78 1.46-3.81 3.37q-2.32 2.15-4.17 3.64q-1.86 1.49-2.44 1.12q-0.42-0.29-0.34-0.81q0.07-0.54 0.37-1.12q0.32-0.59 0.59-1q0.1-0.15 0.17-0.27l0.56-0.9q0.22-0.44 0.27-0.78q0.05-0.32 0.22-0.49zm6.88-8.06v0q-3.2 4.81 0.51 0.17q2.56-2.98 4.27-6.18q1-1.95 1.1-2.39q0.12-0.44-0.39 0.2q-0.51 0.63-1.37 1.88q-0.83 1.25-1.73 2.64q-0.9 1.37-1.56 2.42q-0.63 0.98-0.83 1.27zm26.29-7.62v0q0.32-0.02 0.51 0.07q0.22 0.07 0.24 0.39q0.05 0.98-1.76 3.64q-1.78 2.66-4.52 6.35q-2.2 2.95-4.49 6.2q-2.29 3.22-4.25 6.4q-0.17 0.32-0.39 0.32q-0.22-0.02-0.29-0.22q-0.07-0.22 0.1-0.54q1.32-2.22 3.61-5.64q2.29-3.42 4.54-6.69q1.49-2.2 2.56-3.81q1.1-1.61 1.42-2.17q0.34-0.59-0.42 0.29q-1.44 1.61-2.81 3q-0.68 0.68-1.29 1.34q-0.24 0.27-0.34 0.42q-0.1 0.12-0.1 0.2q0.02 0.05 0.12 0.15q0.1 0.1 0.22 0.37q0.12 0.27 0.1 0.49q0 0.22-0.24 0.32q-0.73 0.29-1.1 0.27q-0.37-0.02-0.51-0.2q-0.15-0.2-0.2-0.42q0-0.02-0.02-0.05q-0.1-0.39 1.17-1.98q1.27-1.61 3.05-3.56q1.81-1.95 3.27-3.39q1.49-1.44 1.81-1.54zm1.39 20.29v0q-0.59-0.32-0.44-0.68q0.17-0.37 0.71-0.68q0.54-0.34 1.07-0.56q0.56-0.24 0.76-0.32q0.05-0.02 0.05-0.02q1.86-0.95 4.1-2.17q2.27-1.25 3.93-2.17q0.95-0.51 0.93-0.71q0-0.22-0.76-0.56q-0.24-0.12-0.54-0.27q-1.88-0.9-3.66-1.66q-1.22-0.51-1.88-0.83q-0.27-0.2-0.24-0.46q0.02-0.29 0.2-0.46q0.2-0.2 0.42-0.12q0.93 0.37 2.56 1.15q1.64 0.76 3.15 1.49q1.51 0.73 2.03 0.98q0.05 0.02 0.07 0.05q0.24 0.1 0.49 0.37q0.24 0.27 0.27 0.59q0.02 0.29-0.39 0.49q0 0-0.07 0.05q-0.61 0.37-3.17 1.83q-2.56 1.46-5.37 2.93q-2.81 1.44-4.2 1.78zm173.38 51.41v0q-0.27 0.02-0.42 0q-0.12-0.05-0.2-0.12q-0.05-0.1-0.07-0.2q-0.02-0.12-0.12-0.2q-0.07-0.07-0.29-0.02q-0.2 0.02-0.66 0.27q-3.64 1.9-7.08 3.86q-0.24 0.12-0.49 0.24q-0.95 0.51-0.93 0.73q0.02 0.22 0.81 0.56q0.22 0.1 0.51 0.24q1.71 0.88 3.34 1.78q1.37 0.73 2.12 1.12q0.27 0.2 0.27 0.39q0 0.17-0.17 0.27q-0.17 0.07-0.39 0q-0.88-0.37-2.44-1.07q-1.54-0.73-3.03-1.44q-1.49-0.73-2.12-1.05q-0.17-0.07-0.22-0.12q-0.24-0.1-0.49-0.37q-0.24-0.27-0.27-0.56q-0.02-0.29 0.39-0.49q0-0.02 0.07-0.05q0.61-0.39 3.17-1.83q2.56-1.46 5.37-2.91q2.81-1.46 4.2-1.81q0.88-0.02 1.03 0.59q0.17 0.59-0.32 1.27q-0.49 0.66-1.59 0.9zm7.32 1.22v0q0.05-0.05 0.12-0.1q0.88-0.68 2.15-1.49q1.29-0.81 2.61-1.07q1.34-0.29 2.34 0.59q1.27 1.37-0.05 3.34q-1.32 1.98-4.2 3.88q-2.86 1.88-6.25 3.05q-3.37 1.15-6.2 0.93q-0.44-0.07-0.61-0.24q-0.15-0.2 0-0.34q0.15-0.15 0.61-0.12q2.51 0.22 5.42-0.83q2.91-1.05 5.44-2.71q2.54-1.66 4-3.3q1.46-1.66 1.1-2.66q-0.51-0.95-2.05-0.29q-1.54 0.66-3.39 2.1q-1.86 1.42-3.37 2.81q-1.51 1.39-2.03 1.88q-0.02 0.02-0.05 0.05q0 0.02-0.02 0.02q0 0 0 0q-0.22 0.17-0.49 0.12q-0.24-0.05-0.44-0.27q-0.12-0.22-0.12-0.44q0.02-0.24 0.22-0.42l0.2-0.2q0.17-0.2 1.07-1.51q0.9-1.34 2.95-4.74q2.05-3.39 5.74-9.74q5.15-8.84 6.79-10.21q0.46-0.44 0.88-0.44q0.44 0 0.76 0.15q0.37 0.12 0.44 0.44q0.1 0.29 0 0.83q-0.27 1.61-1.81 4.54q-1.66 2.95-4.83 7.01q-3.15 4.05-5.71 6.81q-0.56 0.93-0.85 1.39q-0.17 0.32-0.37 0.66q-0.05 0.07-0.1 0.17q-0.29 0.44-0.32 0.54q0 0.1 0.42-0.2zm6.37-11.91v0q-0.73 1.29-1.32 2.29q-1.44 2.42-1.39 2.54q0.05 0.1 2.51-3.27q2.88-3.91 4.44-6.67q1.17-2.2 1.39-2.83q0.24-0.63-0.17-0.15q-0.42 0.46-1.22 1.61q-0.78 1.12-1.68 2.47q-0.88 1.34-1.61 2.47q-0.71 1.12-0.95 1.54zm5.3 7.62v0q-0.68-0.83-0.78-1.61q-0.05-1.17 0.71-1.66q0.76-0.49 1.81 0.32q0.39 0.44 0.49 1.1q0.12 0.66-0.22 1.51q-0.15 0.29-0.12 0.46q0.05 0.15 0.37 0.29q1.93 0.85 2.66 1.98q0.73 1.12-0.66 2.95q-0.73 0.95-1.39 2.34q-0.66 1.37-0.42 2.42q0.29 0.68 1.54 0.34q1.27-0.37 2.78-1.22q1.51-0.85 2.61-1.66q0.34-0.29 0.54-0.27q0.2 0 0.2 0.2q0.02 0.2-0.2 0.42q-3.25 2.86-5.83 3.44q-2.59 0.59-3.1-1.1q-0.51-1.68 2.44-5.62q0.83-1.15 0.24-1.86q-0.59-0.73-1.78-1.39q-0.05-0.02-0.07-0.05q-0.24-0.17-0.44-0.12q-0.17 0.02-0.46 0.44q-0.29 0.39-0.44 0.56q-0.39 0.49-0.68 0.54q-0.29 0.02-0.44-0.2q-0.12-0.22-0.07-0.49q0.07-0.24 0.24-0.27q0.17-0.02 0.71-0.63q0.24-0.34 0.12-0.61q-0.1-0.29-0.34-0.56zm1.17-0.95v0q0.1-0.61-0.12-1.07q-0.22-0.46-0.49-0.46q-0.27-0.02-0.24 0.76q0.02 0.12 0.15 0.42q0.12 0.27 0.27 0.51q0.17 0.24 0.32 0.24q0.05 0 0.05-0.05q0.02-0.07 0.02-0.15q0.02-0.1 0.05-0.2zm28.83-9.38v0q0.9-0.78 1.61-0.68q0.71 0.07 0.27 1.15q-2.59 4.52-6.49 10.4q-3.25 4.91-5.86 9.25q-2.61 4.35-3.22 6.74q-0.05 0.27-0.17 0.44q-0.12 0.15-0.37 0.1q-0.24-0.07-0.27-0.32q0-0.27 0.07-0.56q0.42-1.78 2.49-5.59q2.1-3.81 4.76-8.15q2.66-4.35 4.83-7.81q0.32-0.51 0.44-0.93q0.15-0.44 0.22-0.85q0.07-0.59 0.39-1.32q0.32-0.76 1.29-1.86zm0.93 22v0q-0.59-0.32-0.44-0.68q0.17-0.37 0.71-0.68q0.54-0.34 1.07-0.56q0.56-0.24 0.76-0.32q0.05-0.02 0.05-0.02q1.86-0.95 4.1-2.17q2.27-1.25 3.93-2.17q0.95-0.51 0.93-0.71q0-0.22-0.76-0.56q-0.24-0.12-0.54-0.27q-1.88-0.9-3.66-1.66q-1.22-0.51-1.88-0.83q-0.27-0.2-0.24-0.46q0.02-0.29 0.2-0.46q0.2-0.2 0.42-0.12q0.93 0.37 2.56 1.15q1.64 0.76 3.15 1.49q1.51 0.73 2.03 0.98q0.05 0.02 0.07 0.05q0.24 0.1 0.49 0.37q0.24 0.27 0.27 0.59q0.02 0.29-0.39 0.49q0 0-0.07 0.05q-0.61 0.37-3.17 1.83q-2.56 1.46-5.37 2.93q-2.81 1.44-4.2 1.78z" />
	<path id="&lt;br /&gt;" fill="#3e3e3e" aria-label="&lt;br /&gt;"  d="m576.35 324.72v0q-0.27 0.02-0.42 0q-0.12-0.05-0.2-0.12q-0.05-0.1-0.07-0.2q-0.02-0.12-0.12-0.2q-0.07-0.07-0.29-0.02q-0.2 0.02-0.66 0.27q-3.64 1.9-7.08 3.86q-0.24 0.12-0.49 0.24q-0.95 0.51-0.93 0.73q0.02 0.22 0.81 0.56q0.22 0.1 0.51 0.24q1.71 0.88 3.34 1.78q1.37 0.73 2.12 1.12q0.27 0.2 0.27 0.39q0 0.17-0.17 0.27q-0.17 0.07-0.39 0q-0.88-0.37-2.44-1.07q-1.54-0.73-3.03-1.44q-1.49-0.73-2.12-1.05q-0.17-0.07-0.22-0.12q-0.24-0.1-0.49-0.37q-0.24-0.27-0.27-0.56q-0.02-0.29 0.39-0.49q0-0.02 0.07-0.05q0.61-0.39 3.17-1.83q2.56-1.46 5.37-2.91q2.81-1.46 4.2-1.81q0.88-0.02 1.03 0.59q0.17 0.59-0.32 1.27q-0.49 0.66-1.59 0.9zm7.32 1.22v0q0.05-0.05 0.12-0.1q0.88-0.68 2.15-1.49q1.29-0.81 2.61-1.07q1.34-0.29 2.34 0.59q1.27 1.37-0.05 3.34q-1.32 1.98-4.2 3.88q-2.86 1.88-6.25 3.05q-3.37 1.15-6.2 0.93q-0.44-0.07-0.61-0.24q-0.15-0.2 0-0.34q0.15-0.15 0.61-0.12q2.51 0.22 5.42-0.83q2.91-1.05 5.44-2.71q2.54-1.66 4-3.3q1.46-1.66 1.1-2.66q-0.51-0.95-2.05-0.29q-1.54 0.66-3.39 2.1q-1.86 1.42-3.37 2.81q-1.51 1.39-2.03 1.88q-0.02 0.02-0.05 0.05q0 0.02-0.02 0.02q0 0 0 0q-0.22 0.17-0.49 0.12q-0.24-0.05-0.44-0.27q-0.12-0.22-0.12-0.44q0.02-0.24 0.22-0.42l0.2-0.2q0.17-0.2 1.07-1.51q0.9-1.34 2.95-4.74q2.05-3.39 5.74-9.74q5.15-8.84 6.79-10.21q0.46-0.44 0.88-0.44q0.44 0 0.76 0.15q0.37 0.12 0.44 0.44q0.1 0.29 0 0.83q-0.27 1.61-1.81 4.54q-1.66 2.95-4.83 7.01q-3.15 4.05-5.71 6.81q-0.56 0.93-0.85 1.39q-0.17 0.32-0.37 0.66q-0.05 0.07-0.1 0.17q-0.29 0.44-0.32 0.54q0 0.1 0.42-0.2zm6.37-11.91v0q-0.73 1.29-1.32 2.29q-1.44 2.42-1.39 2.54q0.05 0.1 2.51-3.27q2.88-3.91 4.44-6.67q1.17-2.2 1.39-2.83q0.24-0.63-0.17-0.15q-0.42 0.46-1.22 1.61q-0.78 1.12-1.68 2.47q-0.88 1.34-1.61 2.47q-0.71 1.12-0.95 1.54zm5.3 7.62v0q-0.68-0.83-0.78-1.61q-0.05-1.17 0.71-1.66q0.76-0.49 1.81 0.32q0.39 0.44 0.49 1.1q0.12 0.66-0.22 1.51q-0.15 0.29-0.12 0.46q0.05 0.15 0.37 0.29q1.93 0.85 2.66 1.98q0.73 1.12-0.66 2.95q-0.73 0.95-1.39 2.34q-0.66 1.37-0.42 2.42q0.29 0.68 1.54 0.34q1.27-0.37 2.78-1.22q1.51-0.85 2.61-1.66q0.34-0.29 0.54-0.27q0.2 0 0.2 0.2q0.02 0.2-0.2 0.42q-3.25 2.86-5.83 3.44q-2.59 0.59-3.1-1.1q-0.51-1.68 2.44-5.62q0.83-1.15 0.24-1.86q-0.59-0.73-1.78-1.39q-0.05-0.02-0.07-0.05q-0.24-0.17-0.44-0.12q-0.17 0.02-0.46 0.44q-0.29 0.39-0.44 0.56q-0.39 0.49-0.68 0.54q-0.29 0.02-0.44-0.2q-0.12-0.22-0.07-0.49q0.07-0.24 0.24-0.27q0.17-0.02 0.71-0.63q0.24-0.34 0.12-0.61q-0.1-0.29-0.34-0.56zm1.17-0.95v0q0.1-0.61-0.12-1.07q-0.22-0.46-0.49-0.46q-0.27-0.02-0.24 0.76q0.02 0.12 0.15 0.42q0.12 0.27 0.27 0.51q0.17 0.24 0.32 0.24q0.05 0 0.05-0.05q0.02-0.07 0.02-0.15q0.02-0.1 0.05-0.2zm28.83-9.38v0q0.9-0.78 1.61-0.68q0.71 0.07 0.27 1.15q-2.59 4.52-6.49 10.4q-3.25 4.91-5.86 9.25q-2.61 4.35-3.22 6.74q-0.05 0.27-0.17 0.44q-0.12 0.15-0.37 0.1q-0.24-0.07-0.27-0.32q0-0.27 0.07-0.56q0.42-1.78 2.49-5.59q2.1-3.81 4.76-8.15q2.66-4.35 4.83-7.81q0.32-0.51 0.44-0.93q0.15-0.44 0.22-0.85q0.07-0.59 0.39-1.32q0.32-0.76 1.29-1.86zm0.93 22v0q-0.59-0.32-0.44-0.68q0.17-0.37 0.71-0.68q0.54-0.34 1.07-0.56q0.56-0.24 0.76-0.32q0.05-0.02 0.05-0.02q1.86-0.95 4.1-2.17q2.27-1.25 3.93-2.17q0.95-0.51 0.93-0.71q0-0.22-0.76-0.56q-0.24-0.12-0.54-0.27q-1.88-0.9-3.66-1.66q-1.22-0.51-1.88-0.83q-0.27-0.2-0.24-0.46q0.02-0.29 0.2-0.46q0.2-0.2 0.42-0.12q0.93 0.37 2.56 1.15q1.64 0.76 3.15 1.49q1.51 0.73 2.03 0.98q0.05 0.02 0.07 0.05q0.24 0.1 0.49 0.37q0.24 0.27 0.27 0.59q0.02 0.29-0.39 0.49q0 0-0.07 0.05q-0.61 0.37-3.17 1.83q-2.56 1.46-5.37 2.93q-2.81 1.44-4.2 1.78z" />
	<path id="&lt;/h1&gt;" fill="#3e3e3e" aria-label="&lt;/h1&gt;"  d="m864.35 409.72v0q-0.27 0.02-0.42 0q-0.12-0.05-0.2-0.12q-0.05-0.1-0.07-0.2q-0.02-0.12-0.12-0.2q-0.07-0.07-0.29-0.02q-0.2 0.02-0.66 0.27q-3.64 1.9-7.08 3.86q-0.24 0.12-0.49 0.24q-0.95 0.51-0.93 0.73q0.02 0.22 0.81 0.56q0.22 0.1 0.51 0.24q1.71 0.88 3.34 1.78q1.37 0.73 2.12 1.12q0.27 0.2 0.27 0.39q0 0.17-0.17 0.27q-0.17 0.07-0.39 0q-0.88-0.37-2.44-1.07q-1.54-0.73-3.03-1.44q-1.49-0.73-2.12-1.05q-0.17-0.07-0.22-0.12q-0.24-0.1-0.49-0.37q-0.24-0.27-0.27-0.56q-0.02-0.29 0.39-0.49q0-0.02 0.07-0.05q0.61-0.39 3.17-1.83q2.56-1.46 5.37-2.91q2.81-1.46 4.2-1.81q0.88-0.02 1.03 0.59q0.17 0.59-0.32 1.27q-0.49 0.66-1.59 0.9zm17.63-13.4v0q0.9-0.78 1.61-0.68q0.71 0.07 0.27 1.15q-2.59 4.52-6.49 10.4q-3.25 4.91-5.86 9.25q-2.61 4.35-3.22 6.74q-0.05 0.27-0.17 0.44q-0.12 0.15-0.37 0.1q-0.24-0.07-0.27-0.32q0-0.27 0.07-0.56q0.42-1.78 2.49-5.59q2.1-3.81 4.76-8.15q2.66-4.35 4.83-7.81q0.32-0.51 0.44-0.93q0.15-0.44 0.22-0.85q0.07-0.59 0.39-1.32q0.32-0.76 1.29-1.86zm0.51 17.38v0q0 0 0.02-0.02q0.15-0.12 0.71-0.66l11.91-19.14q1.32-0.83 1.73-0.42q0.42 0.39 0.27 1.46q-0.12 1.05-0.49 2.15q-0.37 1.1-0.61 1.66q-1.54 3.3-4.05 6.54q-2.51 3.22-4.86 5.66q-2.34 2.44-3.34 3.34l-1.44 2.17q-0.63 0.93-0.37 0.81q0.27-0.15 1.1-0.9q1.95-1.83 4.22-3.81q2.29-1.98 4.27-3.27q2-1.32 3.08-1.12q1.42 0.37 0.61 3.27q-0.59 2.29-0.51 3.47q0.1 1.17 0.66 1.34q1.51 0.39 5.49-1.95q0.24-0.15 0.42-0.02q0.2 0.12 0.17 0.37q0 0.22-0.32 0.44q-2.12 1.34-3.66 1.95q-1.51 0.61-2.51 0.29q-2.27-0.61-0.71-6.37q0.49-1.93-0.46-1.71q-0.95 0.22-2.73 1.71q-1.78 1.46-3.81 3.37q-2.32 2.15-4.17 3.64q-1.86 1.49-2.44 1.12q-0.42-0.29-0.34-0.81q0.07-0.54 0.37-1.12q0.32-0.59 0.59-1q0.1-0.15 0.17-0.27l0.56-0.9q0.22-0.44 0.27-0.78q0.05-0.32 0.22-0.49zm6.88-8.06v0q-3.2 4.81 0.51 0.17q2.56-2.98 4.27-6.18q1-1.95 1.1-2.39q0.12-0.44-0.39 0.2q-0.51 0.63-1.37 1.88q-0.83 1.25-1.73 2.64q-0.9 1.37-1.56 2.42q-0.63 0.98-0.83 1.27zm26.29-7.62v0q0.32-0.02 0.51 0.07q0.22 0.07 0.24 0.39q0.05 0.98-1.76 3.64q-1.78 2.66-4.52 6.35q-2.2 2.95-4.49 6.2q-2.29 3.22-4.25 6.4q-0.17 0.32-0.39 0.32q-0.22-0.02-0.29-0.22q-0.07-0.22 0.1-0.54q1.32-2.22 3.61-5.64q2.29-3.42 4.54-6.69q1.49-2.2 2.56-3.81q1.1-1.61 1.42-2.17q0.34-0.59-0.42 0.29q-1.44 1.61-2.81 3q-0.68 0.68-1.29 1.34q-0.24 0.27-0.34 0.42q-0.1 0.12-0.1 0.2q0.02 0.05 0.12 0.15q0.1 0.1 0.22 0.37q0.12 0.27 0.1 0.49q0 0.22-0.24 0.32q-0.73 0.29-1.1 0.27q-0.37-0.02-0.51-0.2q-0.15-0.2-0.2-0.42q0-0.02-0.02-0.05q-0.1-0.39 1.17-1.98q1.27-1.61 3.05-3.56q1.81-1.95 3.27-3.39q1.49-1.44 1.81-1.54zm1.39 20.29v0q-0.59-0.32-0.44-0.68q0.17-0.37 0.71-0.68q0.54-0.34 1.07-0.56q0.56-0.24 0.76-0.32q0.05-0.02 0.05-0.02q1.86-0.95 4.1-2.17q2.27-1.25 3.93-2.17q0.95-0.51 0.93-0.71q0-0.22-0.76-0.56q-0.24-0.12-0.54-0.27q-1.88-0.9-3.66-1.66q-1.22-0.51-1.88-0.83q-0.27-0.2-0.24-0.46q0.02-0.29 0.2-0.46q0.2-0.2 0.42-0.12q0.93 0.37 2.56 1.15q1.64 0.76 3.15 1.49q1.51 0.73 2.03 0.98q0.05 0.02 0.07 0.05q0.24 0.1 0.49 0.37q0.24 0.27 0.27 0.59q0.02 0.29-0.39 0.49q0 0-0.07 0.05q-0.61 0.37-3.17 1.83q-2.56 1.46-5.37 2.93q-2.81 1.44-4.2 1.78z" />
	<path id="&lt;/div&gt;" fill="#3e3e3e" aria-label="&lt;/div&gt;"  d="m116.35 470.72v0q-0.27 0.02-0.42 0q-0.12-0.05-0.2-0.12q-0.05-0.1-0.07-0.2q-0.02-0.12-0.12-0.2q-0.07-0.07-0.29-0.02q-0.2 0.02-0.66 0.27q-3.64 1.9-7.08 3.86q-0.24 0.12-0.49 0.24q-0.95 0.51-0.93 0.73q0.02 0.22 0.81 0.56q0.22 0.1 0.51 0.24q1.71 0.88 3.34 1.78q1.37 0.73 2.12 1.12q0.27 0.2 0.27 0.39q0 0.17-0.17 0.27q-0.17 0.07-0.39 0q-0.88-0.37-2.44-1.07q-1.54-0.73-3.03-1.44q-1.49-0.73-2.12-1.05q-0.17-0.07-0.22-0.12q-0.24-0.1-0.49-0.37q-0.24-0.27-0.27-0.56q-0.02-0.29 0.39-0.49q0-0.02 0.07-0.05q0.61-0.39 3.17-1.83q2.56-1.46 5.37-2.91q2.81-1.46 4.2-1.81q0.88-0.02 1.03 0.59q0.17 0.59-0.32 1.27q-0.49 0.66-1.59 0.9zm17.63-13.4v0q0.9-0.78 1.61-0.68q0.71 0.07 0.27 1.15q-2.59 4.52-6.49 10.4q-3.25 4.91-5.86 9.25q-2.61 4.35-3.22 6.74q-0.05 0.27-0.17 0.44q-0.12 0.15-0.37 0.1q-0.24-0.07-0.27-0.32q0-0.27 0.07-0.56q0.42-1.78 2.49-5.59q2.1-3.81 4.76-8.15q2.66-4.35 4.83-7.81q0.32-0.51 0.44-0.93q0.15-0.44 0.22-0.85q0.07-0.59 0.39-1.32q0.32-0.76 1.29-1.86zm10.62 14.26v0q-1.17 1.17-3.03 2.86q-1.86 1.66-3.83 3.17q-1.98 1.49-3.49 2.1q-1.49 0.59-1.93-0.42q-0.27-0.9 0.93-2.88q1.22-1.98 3.25-4.08q2.03-2.1 4.27-3.42q2.25-1.32 4.08-0.93q0.49 0.15 0.66 0.29q0.12 0.07 0.22 0.12q0.12 0.02 0.27-0.05q0.15-0.1 0.39-0.34q0.95-0.88 1.56-1.61q0.61-0.73 1.29-1.88q2.08-3.49 3.3-5.35q1.66-2.56 3.78-4.93q2.12-2.37 3.71-3.66q0.44-0.37 1.05-0.54q0.61-0.2 1.1-0.05q0.49 0.12 0.56 0.73q-0.1 0.78-1.61 3.03q-2.37 3.44-5.08 6.42q-2.69 2.95-5.1 5.18q-1 0.98-1.54 1.68q-0.54 0.68-1.27 1.93q-2.49 4.13-4.98 8.13q-2.47 4-4.15 6.69q-1.66 2.66-1.76 2.78q-0.17 0.27-0.42 0.32q-0.22 0.05-0.32-0.12q-0.1-0.17 0.12-0.56q1.39-2.42 3.47-6.05q3.08-5.4 5.05-8.76q0.51-0.81 0.39-0.73q-0.12 0.07-0.73 0.68q-0.1 0.12-0.22 0.24v0zm10.35-12.06v0q2.78-2.88 5.18-6.35q0.56-0.85 0.66-1.15q0.1-0.32-0.12-0.24q-0.2 0.05-0.59 0.34q-0.37 0.27-0.76 0.61q-0.39 0.34-0.63 0.59q-1.29 1.37-2.86 3.32q-1.54 1.93-2.61 3.56q-0.81 1.29-1 1.76q-0.2 0.44 0.05 0.29q0.24-0.17 0.76-0.71q0.54-0.54 1.15-1.2q0.39-0.44 0.78-0.83v0zm-10.28 9.45v0q-1.68-0.2-3.96 1.42q-2.27 1.59-4.27 3.74q-1.98 2.12-2.78 3.54q-0.37 0.66-0.44 1q-0.05 0.32 0.54 0q1.76-0.98 4.79-3.49q3.03-2.54 6.27-5.64q0.24-0.22 0.22-0.34q-0.02-0.15-0.37-0.22v0zm10.28-2.2v0q0.66 0.05 0.61 0.42q-0.05 0.34-0.49 0.71q-0.42 0.34-0.9 0.46q-0.46 0.1-0.68-0.32q-0.05-0.12 0.02-0.22q0.1-0.12 0.24-0.2q0.17-0.1 0.29-0.17q0.1-0.02 0.15-0.05q0.05-0.02 0.05-0.05q0.02-0.27 0.22-0.44q0.2-0.17 0.49-0.15zm-5.44 11.6v0q-0.95 0-1.12-0.61q-0.17-0.61 0.15-1.54q0.34-0.95 0.93-1.98q0.59-1.05 1.17-1.9q0.59-0.88 0.93-1.34q0.1-0.17 0.17-0.24q-0.15-0.39 0.27-0.85q0.42-0.49 0.98-0.71q0.56-0.24 0.81 0.07q0.17 0.27 0.07 0.51q-0.1 0.24-0.27 0.46q-0.05 0.05-0.1 0.12q-0.93 1.32-2.03 2.95q-1.07 1.61-1.61 2.71q-0.42 0.95 0.51 1.05q0.95 0.1 2.44-0.29q1.51-0.39 2.76-0.83q1.27-0.46 1.51-0.61q0.27-0.15 0.42-0.05q0.17 0.1 0.15 0.32q-0.02 0.2-0.34 0.42q-1.59 0.88-4.15 1.61q-2.54 0.73-3.64 0.73zm13.43-4.08v0q0.15-0.15 0.2-0.24q0.05-0.1 0.1-0.22q0.02-0.07 0.07-0.17q0.56-1.37 1.37-2.61q1.83-2.73 2.91-2.2q0.29 0.27-0.22 1.25q-0.51 0.95-1.32 2.1q-0.78 1.12-1.39 1.86q-0.05 0.07-0.1 0.15q-0.17 0.17-0.27 0.39q-0.07 0.2 0.02 0.46q0.22 0.56 0.98 0.51q0.78-0.05 1.61-0.37q0.83-0.32 1.22-0.51q0.02 0 0.05-0.02q0.24-0.15 0.42-0.07q0.2 0.05 0.17 0.24q-0.02 0.2-0.42 0.44q-1.49 0.93-2.86 1.2q-1.37 0.24-2.05-0.85q-0.1-0.2-0.2-0.15q-0.07 0.02-0.2 0.2q-0.02 0.05-0.05 0.07q-0.76 0.93-2.08 2.1q-1.29 1.15-2.59 1.68q-1.27 0.54-1.93-0.44q-0.34-0.63-0.1-1.78q0.17-0.98 0.63-2.17q0.27-0.68 0.81-1.68q0.54-1 1.15-1.88q0.61-0.9 1.05-1.2q0.51 0 0.76 0.32q0.27 0.29-0.1 1.2q-0.15 0.29-0.29 0.46q-0.15 0.17-0.39 0.37q-0.27 0.24-0.73 0.71q-0.32 0.32-0.61 0.83q-0.29 0.51-0.46 0.93q-1.03 2.44-0.81 3.1q0.22 0.63 1.17 0.1q0.98-0.56 2.2-1.71q1.25-1.17 2.27-2.37zm5.57 5.03v0q-0.59-0.32-0.44-0.68q0.17-0.37 0.71-0.68q0.54-0.34 1.07-0.56q0.56-0.24 0.76-0.32q0.05-0.02 0.05-0.02q1.86-0.95 4.1-2.17q2.27-1.25 3.93-2.17q0.95-0.51 0.93-0.71q0-0.22-0.76-0.56q-0.24-0.12-0.54-0.27q-1.88-0.9-3.66-1.66q-1.22-0.51-1.88-0.83q-0.27-0.2-0.24-0.46q0.02-0.29 0.2-0.46q0.2-0.2 0.42-0.12q0.93 0.37 2.56 1.15q1.64 0.76 3.15 1.49q1.51 0.73 2.03 0.98q0.05 0.02 0.07 0.05q0.24 0.1 0.49 0.37q0.24 0.27 0.27 0.59q0.02 0.29-0.39 0.49q0 0-0.07 0.05q-0.61 0.37-3.17 1.83q-2.56 1.46-5.37 2.93q-2.81 1.44-4.2 1.78z" />
	<path id="&lt;p&gt;                             " fill="#3e3e3e" aria-label="&lt;p&gt;                                                        &lt;/p&gt;"  d="m114.35 526.72v0q-0.27 0.02-0.42 0q-0.12-0.05-0.2-0.12q-0.05-0.1-0.07-0.2q-0.02-0.12-0.12-0.2q-0.07-0.07-0.29-0.02q-0.2 0.02-0.66 0.27q-3.64 1.9-7.08 3.86q-0.24 0.12-0.49 0.24q-0.95 0.51-0.93 0.73q0.02 0.22 0.81 0.56q0.22 0.1 0.51 0.24q1.71 0.88 3.34 1.78q1.37 0.73 2.12 1.12q0.27 0.2 0.27 0.39q0 0.17-0.17 0.27q-0.17 0.07-0.39 0q-0.88-0.37-2.44-1.07q-1.54-0.73-3.03-1.44q-1.49-0.73-2.12-1.05q-0.17-0.07-0.22-0.12q-0.24-0.1-0.49-0.37q-0.24-0.27-0.27-0.56q-0.02-0.29 0.39-0.49q0-0.02 0.07-0.05q0.61-0.39 3.17-1.83q2.56-1.46 5.37-2.91q2.81-1.46 4.2-1.81q0.88-0.02 1.03 0.59q0.17 0.59-0.32 1.27q-0.49 0.66-1.59 0.9zm-8.98 27.51v0q0.32-0.71 2-4.22q1.71-3.52 4.37-8.52q3.37-6.3 6.62-11.89q0.83-1.46 1.54-2.69q2.25-4.08 3.42-5.52q1.2-1.44 2.17-0.12q0.02 0.56-0.61 1.42q-0.63 0.83-1.51 1.78q-1.27 1.37-2.08 2.64q-1.81 3.15-4.3 7.59q-2.47 4.42-4.08 7.42q-0.39 0.71-0.93 1.66q-0.51 0.88-0.93 1.66q-0.42 0.76-0.51 1.05q-0.07 0.27 0.39-0.24q0.46-0.51 1.68-2.15q0.34-0.44 0.68-0.93q3.59-4.88 8.2-10.57q4.61-5.69 8.81-9.08q2-1.49 2.78-1.05q0.81 0.42 0.71 1.83q-0.22 2.49-1.95 5.15q-1.73 2.64-4.03 4.81q-2.27 2.17-4.08 3.22q-1.81 1.05-2.17 0.37q-0.05-0.12 0.05-0.17q0.12-0.07 0.27-0.1q1.25-0.29 3.2-2q1.98-1.71 3.91-4q1.93-2.29 3-4.39q1.1-2.1 0.59-3.2q-0.15-0.44-1.46 0.56q-3.59 2.86-7.91 7.96q-4.3 5.1-8.47 10.74q-4.15 5.64-7.28 10.06q-0.76 1.07-1.42 2q-0.24 0.29-0.46 0.17q-0.22-0.15-0.29-0.49q-0.07-0.37 0.07-0.76zm29.76-18.92v0q-0.59-0.32-0.44-0.68q0.17-0.37 0.71-0.68q0.54-0.34 1.07-0.56q0.56-0.24 0.76-0.32q0.05-0.02 0.05-0.02q1.86-0.95 4.1-2.17q2.27-1.25 3.93-2.17q0.95-0.51 0.93-0.71q0-0.22-0.76-0.56q-0.24-0.12-0.54-0.27q-1.88-0.9-3.66-1.66q-1.22-0.51-1.88-0.83q-0.27-0.2-0.24-0.46q0.02-0.29 0.2-0.46q0.2-0.2 0.42-0.12q0.93 0.37 2.56 1.15q1.64 0.76 3.15 1.49q1.51 0.73 2.03 0.98q0.05 0.02 0.07 0.05q0.24 0.1 0.49 0.37q0.24 0.27 0.27 0.59q0.02 0.29-0.39 0.49q0 0-0.07 0.05q-0.61 0.37-3.17 1.83q-2.56 1.46-5.37 2.93q-2.81 1.44-4.2 1.78zm377.39-8.59v0q-0.27 0.02-0.42 0q-0.12-0.05-0.2-0.12q-0.05-0.1-0.07-0.2q-0.02-0.12-0.12-0.2q-0.07-0.07-0.29-0.02q-0.2 0.02-0.66 0.27q-3.64 1.9-7.08 3.86q-0.24 0.12-0.49 0.24q-0.95 0.51-0.93 0.73q0.02 0.22 0.81 0.56q0.22 0.1 0.51 0.24q1.71 0.88 3.34 1.78q1.37 0.73 2.12 1.12q0.27 0.2 0.27 0.39q0 0.17-0.17 0.27q-0.17 0.07-0.39 0q-0.88-0.37-2.44-1.07q-1.54-0.73-3.03-1.44q-1.49-0.73-2.12-1.05q-0.17-0.07-0.22-0.12q-0.24-0.1-0.49-0.37q-0.24-0.27-0.27-0.56q-0.02-0.29 0.39-0.49q0-0.02 0.07-0.05q0.61-0.39 3.17-1.83q2.56-1.46 5.37-2.91q2.81-1.46 4.2-1.81q0.88-0.02 1.03 0.59q0.17 0.59-0.32 1.27q-0.49 0.66-1.59 0.9zm17.63-13.4v0q0.9-0.78 1.61-0.68q0.71 0.07 0.27 1.15q-2.59 4.52-6.49 10.4q-3.25 4.91-5.86 9.25q-2.61 4.35-3.22 6.74q-0.05 0.27-0.17 0.44q-0.12 0.15-0.37 0.1q-0.24-0.07-0.27-0.32q0-0.27 0.07-0.56q0.42-1.78 2.49-5.59q2.1-3.81 4.76-8.15q2.66-4.35 4.83-7.81q0.32-0.51 0.44-0.93q0.15-0.44 0.22-0.85q0.07-0.59 0.39-1.32q0.32-0.76 1.29-1.86zm-11.77 40.92v0q0.32-0.71 2-4.22q1.71-3.52 4.37-8.52q3.37-6.3 6.62-11.89q0.83-1.46 1.54-2.69q2.25-4.08 3.42-5.52q1.2-1.44 2.17-0.12q0.02 0.56-0.61 1.42q-0.63 0.83-1.51 1.78q-1.27 1.37-2.08 2.64q-1.81 3.15-4.3 7.59q-2.47 4.42-4.08 7.42q-0.39 0.71-0.93 1.66q-0.51 0.88-0.93 1.66q-0.42 0.76-0.51 1.05q-0.07 0.27 0.39-0.24q0.46-0.51 1.68-2.15q0.34-0.44 0.68-0.93q3.59-4.88 8.2-10.57q4.61-5.69 8.81-9.08q2-1.49 2.78-1.05q0.81 0.42 0.71 1.83q-0.22 2.49-1.95 5.15q-1.73 2.64-4.03 4.81q-2.27 2.17-4.08 3.22q-1.81 1.05-2.17 0.37q-0.05-0.12 0.05-0.17q0.12-0.07 0.27-0.1q1.25-0.29 3.2-2q1.98-1.71 3.91-4q1.93-2.29 3-4.39q1.1-2.1 0.59-3.2q-0.15-0.44-1.46 0.56q-3.59 2.86-7.91 7.96q-4.3 5.1-8.47 10.74q-4.15 5.64-7.28 10.06q-0.76 1.07-1.42 2q-0.24 0.29-0.46 0.17q-0.22-0.15-0.29-0.49q-0.07-0.37 0.07-0.76zm29.76-18.92v0q-0.59-0.32-0.44-0.68q0.17-0.37 0.71-0.68q0.54-0.34 1.07-0.56q0.56-0.24 0.76-0.32q0.05-0.02 0.05-0.02q1.86-0.95 4.1-2.17q2.27-1.25 3.93-2.17q0.95-0.51 0.93-0.71q0-0.22-0.76-0.56q-0.24-0.12-0.54-0.27q-1.88-0.9-3.66-1.66q-1.22-0.51-1.88-0.83q-0.27-0.2-0.24-0.46q0.02-0.29 0.2-0.46q0.2-0.2 0.42-0.12q0.93 0.37 2.56 1.15q1.64 0.76 3.15 1.49q1.51 0.73 2.03 0.98q0.05 0.02 0.07 0.05q0.24 0.1 0.49 0.37q0.24 0.27 0.27 0.59q0.02 0.29-0.39 0.49q0 0-0.07 0.05q-0.61 0.37-3.17 1.83q-2.56 1.46-5.37 2.93q-2.81 1.44-4.2 1.78z" />
</svg>